<svg width="362" height="79" viewBox="0 0 362 79" fill="none" xmlns="http://www.w3.org/2000/svg">
<path d="M50.0134 7.95489C42.8315 7.94128 35.8627 10.3948 30.2734 14.9049C34.4766 12.7759 39.1553 11.7597 43.8629 11.9531C48.5706 12.1466 53.1501 13.5433 57.1645 16.0099C61.1788 18.4765 64.4941 21.9308 66.7938 26.043C69.0935 30.1553 70.301 34.7883 70.301 39.4999C70.301 44.2115 69.0935 48.8445 66.7938 52.9568C64.4941 57.069 61.1788 60.5233 57.1645 62.9899C53.1501 65.4565 48.5706 66.8532 43.8629 67.0466C39.1553 67.2401 34.4766 66.2238 30.2734 64.0949C34.2053 67.2497 38.8361 69.4162 43.7777 70.4126C48.7193 71.409 53.8278 71.2065 58.675 69.8218C63.5222 68.4372 67.9669 65.9109 71.6366 62.4546C75.3063 58.9983 78.094 54.7128 79.7662 49.9571C81.4384 45.2014 81.9463 40.1142 81.2474 35.1218C80.5484 30.1294 78.663 25.3773 75.7491 21.2637C72.8351 17.1501 68.9776 13.7949 64.4999 11.4793C60.0221 9.16369 55.0545 7.95512 50.0134 7.95489Z" fill="white" stroke="black" stroke-width="0.25" stroke-miterlimit="10"/>
<path d="M47.8935 73.855C42.6032 73.8709 37.3821 72.6521 32.6456 70.2954C27.9091 67.9388 23.788 64.5093 20.6099 60.2799C17.4318 56.0505 15.2846 51.1379 14.3389 45.9327C13.3932 40.7276 13.6753 35.3735 15.1626 30.2965C16.6499 25.2195 19.3015 20.5597 22.9063 16.6876C26.5112 12.8155 30.9699 9.83806 35.9277 7.9921C40.8856 6.14614 46.2058 5.48259 51.4652 6.05425C56.7246 6.6259 61.778 8.41699 66.2235 11.285C60.6677 6.16663 53.7411 2.77759 46.2903 1.53211C38.8395 0.286624 31.1873 1.23864 24.2688 4.27181C17.3503 7.30497 11.4653 12.2879 7.33298 18.6116C3.20065 24.9353 1 32.3259 1 39.88C1 47.4342 3.20065 54.8247 7.33298 61.1484C11.4653 67.4721 17.3503 72.4551 24.2688 75.4882C31.1873 78.5214 38.8395 79.4734 46.2903 78.2279C53.7411 76.9825 60.6677 73.5934 66.2235 68.475C60.7582 71.9941 54.3938 73.8621 47.8935 73.855Z" fill="white" stroke="black" stroke-width="0.25" stroke-miterlimit="10"/>
<path d="M32.3435 34.805C31.0054 33.3548 29.3337 32.2529 27.4735 31.5949C27.1346 31.5093 26.7804 31.5048 26.4394 31.5819C26.0985 31.659 25.7806 31.8155 25.5117 32.0387C25.2427 32.2619 25.0302 32.5454 24.8915 32.8663C24.7528 33.1871 24.6918 33.5361 24.7135 33.885V45.885C24.574 46.4566 24.574 47.0533 24.7135 47.6249C24.8004 47.9079 24.9596 48.1633 25.1754 48.3658C25.3912 48.5683 25.6562 48.711 25.9441 48.7797C26.232 48.8483 26.5328 48.8407 26.8169 48.7574C27.1009 48.6742 27.3583 48.5182 27.5635 48.305L37.2935 38.385V49.635C37.2935 49.635 40.5035 51.135 40.9335 47.925V33.3749C40.9341 33.0221 40.8436 32.675 40.6707 32.3673C40.4979 32.0597 40.2485 31.8019 39.9468 31.6189C39.6451 31.4358 39.3013 31.3338 38.9485 31.3226C38.5958 31.3114 38.2462 31.3914 37.9335 31.555C36.6069 32.258 35.4841 33.2913 34.6735 34.555C34.5538 34.7463 34.3922 34.9079 34.2009 35.0277C34.0096 35.1474 33.7936 35.2222 33.5692 35.2462C33.3448 35.2703 33.1179 35.2431 32.9056 35.1667C32.6932 35.0902 32.5011 34.9665 32.3435 34.805ZM27.2835 42.9349V36.9349C33.8935 40.3649 27.2835 42.9349 27.2835 42.9349Z" fill="white" stroke="black" stroke-width="0.25" stroke-miterlimit="10"/>
<path d="M50.5836 34.8051C49.2518 33.3522 47.5826 32.2498 45.7236 31.5951C45.3848 31.5094 45.0305 31.505 44.6896 31.5821C44.3487 31.6592 44.0308 31.8157 43.7618 32.0389C43.4928 32.262 43.2803 32.5456 43.1416 32.8664C43.0029 33.1872 42.9419 33.5363 42.9636 33.8851V45.8851C42.8184 46.456 42.8184 47.0542 42.9636 47.6251C43.0505 47.9081 43.2097 48.1634 43.4255 48.3659C43.6414 48.5685 43.9064 48.7111 44.1942 48.7798C44.4821 48.8485 44.783 48.8408 45.067 48.7576C45.351 48.6743 45.6084 48.5184 45.8136 48.3051L55.5336 38.3851V49.6351C55.5336 49.6351 58.7536 51.1351 59.1836 47.9251V33.3751C59.1814 33.0233 59.0891 32.6779 58.9156 32.3719C58.742 32.0659 58.4929 31.8094 58.1921 31.6269C57.8913 31.4444 57.5488 31.342 57.1972 31.3294C56.8456 31.3169 56.4967 31.3946 56.1836 31.5551C54.8602 32.2588 53.7408 33.2921 52.9336 34.5551C52.8131 34.7484 52.6501 34.9116 52.4571 35.0325C52.2641 35.1535 52.046 35.2288 51.8196 35.2529C51.5931 35.277 51.3641 35.2492 51.1499 35.1716C50.9358 35.094 50.7421 34.9687 50.5836 34.8051ZM45.5336 42.9351V36.9351C52.1736 40.3651 45.5336 42.9351 45.5336 42.9351Z" fill="white" stroke="black" stroke-width="0.25" stroke-miterlimit="10"/>
<path d="M100.144 56.4351V20.4351H109.354L119.004 36.0751L129.934 20.4351H138.284V56.4351H130.784L131.004 32.6451L119.214 50.0351L107.644 32.5751V56.4351H100.144Z" fill="white" stroke="black" stroke-width="0.25" stroke-miterlimit="10"/>
<path d="M179.283 20.4351V40.4351C179.254 42.9029 179.768 45.3471 180.789 47.5938C181.811 49.8406 183.314 51.8349 185.193 53.4351C187.671 55.5654 190.883 56.6421 194.143 56.4351C195.058 56.3452 195.962 56.1677 196.843 55.9051C200.456 54.829 203.622 52.6095 205.866 49.5799C208.109 46.5504 209.308 42.8746 209.283 39.1051V20.4351H202.893V40.6151C202.901 41.7093 202.618 42.7858 202.073 43.7351C201.306 45.0317 200.371 46.2219 199.293 47.2751C197.919 48.5727 196.13 49.3418 194.243 49.4462C192.356 49.5505 190.492 48.9833 188.983 47.8451C187.397 46.7569 186.205 45.1856 185.583 43.3651C185.399 42.7148 185.311 42.0409 185.323 41.3651V20.4351H179.283Z" fill="white" stroke="black" stroke-width="0.25" stroke-miterlimit="10"/>
<path d="M229.003 56.4451V20.4451H238.213L247.853 36.0951L258.783 20.4451H267.143V56.4451H259.643L259.853 32.6651L248.073 50.0451L236.503 32.5951V56.4451H229.003Z" fill="white" stroke="black" stroke-width="0.25" stroke-miterlimit="10"/>
<path d="M302.434 20.4451H273.144V56.4451H302.434V48.8051H281.004V41.5151H296.854V34.2351H280.714V27.9451H302.434V20.4451Z" fill="white" stroke="black" stroke-width="0.25" stroke-miterlimit="10"/>
<path d="M173.434 20.4451H144.144V56.4451H173.434V48.8051H152.004V41.5151H167.854V34.2351H151.714V27.9451H173.434V20.4451Z" fill="white" stroke="black" stroke-width="0.25" stroke-miterlimit="10"/>
<path d="M307.144 56.1751V20.7651C307.144 20.723 307.152 20.6814 307.168 20.6426C307.184 20.6038 307.208 20.5685 307.237 20.5388C307.267 20.5091 307.302 20.4855 307.341 20.4694C307.38 20.4533 307.422 20.4451 307.464 20.4451H316.114C316.167 20.4461 316.22 20.4604 316.267 20.4865C316.314 20.5127 316.354 20.5499 316.384 20.5951L330.274 43.1751C330.308 43.2363 330.362 43.2842 330.427 43.3107C330.492 43.3373 330.564 43.341 330.631 43.3212C330.699 43.3015 330.757 43.2595 330.798 43.202C330.838 43.1446 330.858 43.0751 330.854 43.0051V20.7551C330.854 20.713 330.862 20.6714 330.878 20.6326C330.894 20.5938 330.918 20.5585 330.947 20.5288C330.977 20.4991 331.012 20.4755 331.051 20.4594C331.09 20.4433 331.132 20.4351 331.174 20.4351H337.684C337.726 20.4351 337.767 20.4433 337.806 20.4594C337.845 20.4755 337.88 20.4991 337.91 20.5288C337.94 20.5585 337.963 20.5938 337.979 20.6326C337.995 20.6714 338.004 20.713 338.004 20.7551V40.4751C338 42.9559 338.758 45.3781 340.174 47.4151C342.174 50.3151 345.314 54.2851 348.224 55.8451C348.288 55.8755 348.339 55.927 348.37 55.991C348.401 56.055 348.409 56.1276 348.392 56.1967C348.376 56.2658 348.336 56.3271 348.28 56.3705C348.224 56.4139 348.155 56.4367 348.084 56.4351H329.814C329.762 56.4371 329.71 56.4253 329.664 56.4006C329.619 56.376 329.58 56.3395 329.554 56.2951L315.224 34.1751C315.189 34.1138 315.135 34.066 315.07 34.0394C315.005 34.0128 314.933 34.0091 314.866 34.0289C314.798 34.0486 314.74 34.0907 314.699 34.1481C314.659 34.2055 314.639 34.275 314.644 34.3451V56.1751C314.644 56.2166 314.635 56.2578 314.619 56.2961C314.603 56.3343 314.579 56.369 314.549 56.3979C314.519 56.4268 314.484 56.4494 314.445 56.4644C314.406 56.4794 314.365 56.4864 314.324 56.4851H307.464C307.422 56.4864 307.381 56.4794 307.342 56.4644C307.303 56.4494 307.268 56.4268 307.238 56.3979C307.208 56.369 307.184 56.3343 307.168 56.2961C307.152 56.2578 307.144 56.2166 307.144 56.1751Z" fill="white" stroke="black" stroke-width="0.25" stroke-miterlimit="10"/>
<path d="M345.503 20.4451V42.1751C345.627 42.6211 345.787 43.056 345.983 43.4751C346.531 44.6941 347.359 45.7667 348.399 46.6058C349.44 47.445 350.663 48.027 351.97 48.3046C353.278 48.5823 354.632 48.5477 355.924 48.2038C357.215 47.8598 358.407 47.2162 359.403 46.3251C359.994 45.7992 360.474 45.1619 360.818 44.4497C361.161 43.7375 361.36 42.9645 361.403 42.1751V20.4451H345.503Z" fill="white" stroke="black" stroke-width="0.25" stroke-miterlimit="10"/>
</svg>
